<?xml version="1.0" standalone="no"?><!DOCTYPE svg PUBLIC "-//W3C//DTD SVG 1.1//EN" "http://www.w3.org/Graphics/SVG/1.1/DTD/svg11.dtd"><svg t="1705480354336" class="icon" viewBox="0 0 1024 1024" version="1.1" xmlns="http://www.w3.org/2000/svg" p-id="1823" xmlns:xlink="http://www.w3.org/1999/xlink" width="200" height="200"><path d="M147.2 0C102.4 0 65.6 36.8 65.6 81.6v860.8c0 44.8 35.2 81.6 81.6 81.6h731.2c44.8 0 81.6-36.8 81.6-81.6V324.8L657.6 0H147.2z" fill="#1AB6D9" p-id="1824"></path><path d="M225.6 556.8v305.6H544V556.8H225.6z m289.6 246.4H254.4V614.4h260.8v188.8z" fill="#FFFFFF" p-id="1825"></path><path d="M960 326.4v16H755.2s-100.8-20.8-99.2-108.8c0 0 4.8 92.8 97.6 92.8H960z" fill="#13A3CF" p-id="1826"></path><path d="M657.6 0v233.6c0 25.6 17.6 92.8 97.6 92.8H960L657.6 0z" fill="#FFFFFF" opacity=".5" p-id="1827"></path></svg>